<svg width="14" height="15" viewBox="0 0 14 15" fill="none" xmlns="http://www.w3.org/2000/svg">
<g clip-path="url(#clip0_2034_12)">
<path d="M6.9301 14.7H1.01018C0.420178 14.7 0.250168 14.53 0.250168 13.95C0.250168 11.18 0.250168 8.40998 0.250168 5.63998C0.241072 5.48469 0.273164 5.32977 0.34343 5.191C0.413695 5.05223 0.519525 4.93456 0.65007 4.84998L6.50017 0.459982C6.88017 0.179982 7.03009 0.169982 7.42009 0.459982L13.32 4.87998C13.4385 4.96433 13.5339 5.07738 13.5968 5.20855C13.6598 5.33972 13.6884 5.48472 13.6801 5.62998C13.6801 8.40998 13.6801 11.19 13.6801 13.97C13.6801 14.52 13.5001 14.7 12.9601 14.7H6.9301ZM12.6301 13.7C12.6301 13.62 12.6301 13.58 12.6301 13.54C12.6301 11.86 12.6301 10.18 12.6301 8.53998C12.624 8.47423 12.605 8.41034 12.5741 8.35198C12.5432 8.29362 12.5011 8.24195 12.4501 8.19997C11.3201 7.33997 10.1802 6.48997 9.04021 5.63998L6.97014 4.07998C6.91014 4.07998 6.85999 4.14998 6.81999 4.17998L1.46013 8.17998C1.35904 8.27762 1.29844 8.40968 1.29021 8.54998C1.29021 10.18 1.29021 11.81 1.29021 13.45C1.29021 13.53 1.29021 13.62 1.29021 13.71H4.37004V13.37C4.37004 12.37 4.37004 11.37 4.37004 10.32C4.36977 10.0376 4.40003 9.75592 4.46013 9.47997C4.59628 8.96142 4.88929 8.49765 5.29924 8.15215C5.70919 7.80665 6.21605 7.59633 6.75017 7.54998C7.41263 7.49667 8.06968 7.70411 8.58147 8.1281C9.09325 8.5521 9.41932 9.15916 9.49016 9.81998C9.55016 11 9.49016 12.18 9.49016 13.35C9.49016 13.47 9.49016 13.59 9.49016 13.71L12.6301 13.7ZM8.51018 13.7V12.7C8.51018 11.75 8.51018 10.79 8.51018 9.83997C8.49033 9.64423 8.43165 9.45442 8.33757 9.28162C8.24349 9.10882 8.11572 8.95652 7.96208 8.83361C7.80845 8.7107 7.63203 8.61965 7.44279 8.5658C7.25356 8.51195 7.05536 8.49638 6.86003 8.51998C6.45206 8.55562 6.07491 8.75125 5.81071 9.06415C5.54652 9.37706 5.41686 9.78181 5.45012 10.19C5.45012 11.25 5.45012 12.32 5.45012 13.39C5.44554 13.4766 5.44554 13.5634 5.45012 13.65L8.51018 13.7ZM12.6401 6.99998C12.6401 6.59998 12.6401 6.27998 12.6401 5.99998C12.6282 5.85853 12.5641 5.7266 12.4601 5.62998L9.31999 3.26998L6.98015 1.43998C6.94398 1.45023 6.90996 1.4672 6.88005 1.48998L1.42009 5.57998C1.42009 5.57998 1.29021 5.67997 1.29021 5.72997C1.29021 6.12997 1.29021 6.51998 1.29021 6.96998L1.6801 6.67998L6.46013 3.08997C6.89013 2.77997 7.03013 2.77997 7.46013 3.08997L12.32 6.72997L12.6401 6.99998Z" fill="#00A1C9" stroke="#00A1C9" stroke-width="0.5" stroke-linecap="round" stroke-linejoin="round"/>
</g>
<defs>
<clipPath id="clip0_2034_12">
<rect width="13.93" height="14.95" fill="white"/>
</clipPath>
</defs>
</svg>
