<svg width="105" height="27" viewBox="0 0 105 27" fill="none" xmlns="http://www.w3.org/2000/svg">
<path d="M29.5446 0.828766H34.3978C35.0071 0.826846 35.6149 0.886912 36.2109 1.00795C36.7474 1.11229 37.2583 1.3128 37.7164 1.59883C38.1527 1.88106 38.5061 2.26489 38.7433 2.71392C38.9975 3.18129 39.1245 3.76406 39.1245 4.46222C39.1245 5.30728 38.8943 6.02535 38.4338 6.61643C37.9734 7.20751 37.3005 7.58133 36.4152 7.7379L39.6037 12.7891H36.2899L33.6688 8.00812H32.305V12.7891H29.5446V0.828766ZM32.308 5.77852H33.9375C34.1856 5.77852 34.4491 5.77002 34.7279 5.75301C34.9856 5.74003 35.2396 5.68877 35.4807 5.60108C35.701 5.51935 35.8939 5.38206 36.0388 5.20387C36.1864 5.02411 36.2602 4.77071 36.2602 4.44367C36.2602 4.13982 36.1953 3.89762 36.0656 3.71709C35.94 3.54105 35.7692 3.39869 35.5694 3.30364C35.352 3.20311 35.1186 3.13748 34.8787 3.10939C34.6263 3.07607 34.3717 3.05902 34.1169 3.05836H32.305L32.308 5.77852ZM40.4202 12.7891H49.2566V10.3566H43.1806V7.92114H48.6188V5.48569H43.1806V3.26131H48.9404V0.825867H40.4172L40.4202 12.7891ZM54.8911 0.828766H57.1761L62.6319 12.7891H59.5145L58.4341 10.2551H53.5614L52.5162 12.7891H49.4688L54.8911 0.828766ZM55.954 4.30798L54.4284 8.02435H57.4935L55.954 4.30798ZM63.2873 12.7886H71.1697V10.3566H66.0508V0.828766H63.2873V12.7886ZM29.6479 26.3853H38.4867V23.9499H32.4108V21.5202H37.8489V19.0848H32.4108V16.8569H38.1681V14.4244H29.6479V26.3853ZM48.0892 15.3707C47.5735 14.9291 46.9628 14.6003 46.2998 14.4075C45.6336 14.2155 44.9412 14.1188 44.2453 14.1205C43.6397 14.1194 43.0372 14.202 42.4565 14.3658C41.9016 14.5164 41.3812 14.7651 40.9225 15.0988C40.4792 15.4257 40.1164 15.8414 39.8596 16.3165C39.5933 16.8012 39.4604 17.3645 39.4608 18.0062C39.4608 18.6707 39.6055 19.2056 39.8949 19.6107C40.1774 20.0104 40.5496 20.3451 40.9845 20.5907C41.4296 20.8424 41.9053 21.041 42.4012 21.1821C42.9087 21.3283 43.3811 21.4746 43.8185 21.6211C44.2078 21.7445 44.5751 21.924 44.9074 22.1534C45.0474 22.2509 45.1601 22.3797 45.2358 22.5284C45.3115 22.6771 45.3478 22.8412 45.3416 23.0064C45.346 23.2049 45.2863 23.3998 45.1707 23.5648C45.0562 23.7248 44.9048 23.8575 44.7281 23.9528C44.5345 24.0581 44.3254 24.1351 44.1079 24.1812C43.4284 24.3333 42.7147 24.2556 42.0886 23.9615C41.6651 23.7707 41.2972 23.4835 41.0173 23.1253L39.0534 25.1885C39.6141 25.694 40.2773 26.0849 41.0021 26.3372C42.3322 26.7652 43.7659 26.8056 45.1202 26.4532C45.6784 26.3082 46.2018 26.0614 46.6616 25.7266C47.1068 25.3972 47.4672 24.9752 47.7153 24.4926C47.9747 23.9966 48.1046 23.4168 48.105 22.753C48.105 22.0549 47.9631 21.4974 47.6794 21.0807C47.407 20.675 47.0404 20.3346 46.6081 20.0856C46.1732 19.8364 45.7056 19.6434 45.2175 19.5115C44.7222 19.3766 44.2587 19.2413 43.827 19.1056C43.4464 18.994 43.0854 18.829 42.7556 18.6162C42.4719 18.4229 42.33 18.1469 42.33 17.7882C42.3238 17.5835 42.386 17.3823 42.5076 17.2135C42.6278 17.0544 42.7855 16.9244 42.9678 16.8337C43.1577 16.7375 43.3604 16.6665 43.5704 16.6226C43.7739 16.5784 43.9819 16.5556 44.1906 16.5548C44.5625 16.5601 44.9308 16.6257 45.2795 16.7491C45.6374 16.8617 45.9539 17.0698 46.1916 17.3486L48.0892 15.3707ZM51.8796 26.3882H54.6425V16.756H58.2213V14.4244H48.2996V16.756H51.8778L51.8796 26.3882ZM61.4049 14.4244H63.6904L69.1462 26.3853H66.0283L64.9478 23.8513H60.0763L59.0336 26.3853H55.9874L61.4049 14.4244ZM62.4677 17.9036L60.9476 21.62H64.0121L62.4677 17.9036ZM70.4936 26.3842H73.2564V16.756H76.8352V14.4244H66.9166V16.756H70.4948L70.4936 26.3842ZM77.6317 26.3842H86.4711V23.9487H80.3952V21.5202H85.8333V19.0848H80.3952V16.8569H86.1513V14.4244H77.6329L77.6317 26.3842ZM88.4199 26.3842H89.5885V14.4244H88.4199V26.3842ZM104.999 26.3842H98.0923C97.2355 26.3874 96.3855 26.2383 95.586 25.9446C94.8088 25.664 94.096 25.2424 93.4871 24.7031C92.8756 24.1564 92.3847 23.4987 92.0431 22.7687C91.6831 22.0141 91.5029 21.175 91.5025 20.2515C91.4953 19.4239 91.6484 18.6021 91.9543 17.8276C92.2387 17.1047 92.6729 16.4438 93.2311 15.8845C93.798 15.3271 94.4794 14.8873 95.2327 14.5925C96.0179 14.2771 96.8947 14.1194 97.863 14.1194C98.8314 14.1194 99.7082 14.2771 100.493 14.5925C101.247 14.8873 101.928 15.3271 102.495 15.8845C103.053 16.4436 103.488 17.1046 103.772 17.8276C104.078 18.6021 104.231 19.4239 104.224 20.2515C104.223 20.7844 104.152 21.3152 104.011 21.831C103.873 22.3474 103.664 22.8444 103.391 23.3097C103.126 23.7628 102.792 24.1756 102.399 24.5344C102.022 24.8814 101.576 25.1539 101.089 25.3363V25.37H105L104.999 26.3842ZM92.6717 20.2526C92.6678 20.9327 92.8033 21.607 93.0706 22.2375C93.3249 22.8465 93.7043 23.4009 94.1863 23.8681C94.6739 24.3359 95.2521 24.7089 95.8888 24.9664C96.5751 25.2427 97.3139 25.3809 98.0588 25.3723C98.8614 25.3723 99.5728 25.2289 100.193 24.942C100.793 24.6697 101.327 24.2812 101.76 23.8014C102.189 23.323 102.516 22.7701 102.724 22.1731C103.17 20.8941 103.161 19.5105 102.698 18.237C102.476 17.6342 102.13 17.0798 101.68 16.6064C101.225 16.137 100.669 15.7679 100.049 15.525C99.4058 15.2663 98.6762 15.1368 97.8606 15.1364C97.045 15.1361 96.3154 15.2656 95.6717 15.525C95.0524 15.7679 94.4963 16.137 94.0422 16.6064C93.5921 17.0795 93.2459 17.6337 93.0238 18.2364C92.7833 18.8844 92.6634 19.5676 92.6693 20.2549" fill="url(#paint0_linear_1311_700)"/>
<path d="M19.3752 5.32279C19.3752 4.69073 19.3654 4.2106 19.3752 3.73047C19.394 2.94359 19.6524 2.7012 20.4763 2.69018C21.0065 2.68323 21.5371 2.68323 22.0681 2.69018C22.8865 2.70178 23.1266 2.93721 23.1297 3.74439C23.1358 5.14245 23.1473 6.54109 23.1224 7.93858C23.1157 8.341 23.2525 8.60658 23.5699 8.86347C24.6686 9.75124 25.7484 10.6611 26.8258 11.5732C27.1007 11.8051 27.5196 12.0336 27.3384 12.45C27.1779 12.8193 26.7304 12.7213 26.3875 12.7318C25.7308 12.7521 25.0729 12.7544 24.4163 12.7318C24.0235 12.7196 23.9092 12.8477 23.911 13.2293C23.9292 16.0973 23.9207 18.9659 23.9207 21.8345C23.9207 22.8951 23.9341 23.9557 23.9165 25.0163C23.8988 26.0769 23.2829 26.6799 22.1702 26.6822C16.7108 26.6915 10.5284 26.6875 5.06841 26.6869C5.00092 26.6869 5.59678 25.9064 5.40951 25.8791C5.9622 25.6362 6.341 26.0351 6.68271 25.6959C8.08116 24.3042 9.48994 22.9201 10.8781 21.5208C11.1407 21.2564 11.3347 21.1955 11.6995 21.388C15.8687 23.5834 20.6903 20.9821 21.4674 16.7172C22.0425 13.5598 20.3808 10.501 17.4307 9.28561C13.7649 7.77795 9.56777 9.72979 8.4107 13.492C7.87504 15.2316 8.02035 16.9283 8.87341 18.5473C9.0777 18.9346 9.05581 19.1596 8.73052 19.4751C7.24209 20.9178 5.78466 22.3906 4.31507 23.8507C4.12415 24.0404 4.28528 25.2152 4.13267 25.504C3.90648 25.2685 3.63348 24.9763 3.63348 24.7611C3.6274 21.2657 3.62923 16.8169 3.63044 13.3244C3.63044 12.7515 3.63044 12.748 3.01634 12.7445C2.40832 12.7393 1.8003 12.748 1.19653 12.7393C0.969221 12.742 0.742348 12.7196 0.520414 12.6726C0.192082 12.592 0.0765582 12.3409 0.255924 12.0632C0.397008 11.8641 0.56691 11.6851 0.760582 11.5314C4.56315 8.28418 8.36774 5.03788 12.1744 1.79255C13.1721 0.943041 14.0659 0.938402 15.0667 1.76761C16.3638 2.84346 17.6579 3.92202 18.9489 5.00328C19.0401 5.07866 19.1368 5.14825 19.3703 5.32743" fill="url(#paint1_linear_1311_700)"/>
<path d="M14.8644 20.0532C12.225 20.0648 10.0002 17.7917 10.2909 14.9979C10.4033 13.9112 10.8581 12.9602 11.6826 12.1797C13.4848 10.472 16.3036 10.4714 18.0614 12.2244C19.396 13.5581 19.779 15.151 19.199 16.9027C18.6451 18.5757 17.4357 19.6171 15.6117 19.9731C15.3684 20.0213 15.1119 20.0271 14.8614 20.0532" fill="url(#paint2_linear_1311_700)"/>
<path d="M5.61709 26.608C6.04574 26.372 6.32482 26.0606 6.62032 25.7666C8.01877 24.3749 9.42756 22.9907 10.8157 21.5915C11.0783 21.3271 11.2723 21.2662 11.6371 21.4587C15.8063 23.6541 20.6279 21.0528 21.405 16.7879C21.9802 13.6305 20.3184 10.5717 17.3683 9.3563C13.7026 7.84864 9.50538 9.80048 8.34832 13.5627C7.81265 15.3023 7.95797 16.9984 8.81102 18.618C9.01532 19.0053 8.99343 19.2297 8.66875 19.5458C7.1797 20.9885 5.72288 22.4607 4.25269 23.9214C4.12312 24.0421 4.00129 24.1701 3.88788 24.3047C3.58812 24.6016 3.37045 25.5601 3.86842 26.2108C4.25938 26.7141 5.26748 26.7698 5.61709 26.608ZM19.134 16.9729C18.5801 18.6458 17.3707 19.6867 15.5497 20.0433C15.3065 20.0914 15.0499 20.0972 14.8 20.1227C12.16 20.1349 9.93586 17.8612 10.2259 15.068C10.3221 14.0001 10.8157 13.0002 11.6176 12.2493C13.4198 10.5421 16.2386 10.5416 17.9964 12.2945C19.3298 13.6265 19.7141 15.2211 19.134 16.9729Z" fill="url(#paint3_linear_1311_700)"/>
<path d="M14.9052 20.1094C17.5896 20.1094 19.7657 18.0341 19.7657 15.474C19.7657 12.9139 17.5896 10.8385 14.9052 10.8385C12.2208 10.8385 10.0447 12.9139 10.0447 15.474C10.0447 18.0341 12.2208 20.1094 14.9052 20.1094Z" fill="#01A0C6"/>
<g opacity="0.2">
<path opacity="0.2" d="M3.71574 23.904C3.63913 20.2891 3.62454 16.6267 3.69446 13.0124C3.72608 12.7334 3.26033 12.7016 3.01044 12.7027C2.12272 12.7097 1.21799 12.712 0.331494 12.712C0.264544 12.712 0.199157 12.6927 0.143946 12.6566C0.088734 12.6205 0.0462875 12.5693 0.0221967 12.5097C-0.00189413 12.4501 -0.00649896 12.385 0.00898852 12.3229C0.024476 12.2607 0.0593291 12.2046 0.108958 12.1617C1.12719 11.2637 2.14745 10.3678 3.16974 9.474C5.15128 7.7489 7.33772 5.87882 9.35818 4.17401C10.3669 3.32508 11.4741 2.39787 12.4907 1.5646C12.8598 1.10998 13.6283 1.01778 14.271 1.27466C14.8419 1.4869 15.3381 1.84641 15.7862 2.23319C16.0811 2.49219 16.3606 2.7667 16.6234 3.05544C15.8366 2.34452 14.7671 1.42021 13.6441 1.35758C13.2744 1.34193 12.8993 1.47878 12.6859 1.76987C11.9739 2.43498 11.1658 3.17373 10.4435 3.83884C7.20882 6.78979 3.86653 9.76104 0.557678 12.6297L0.335142 12.0794C1.01491 12.0863 1.69407 12.0892 2.37323 12.1002C2.7046 12.1124 3.12535 12.0886 3.44821 12.1489C3.9401 12.2255 4.36754 12.5867 4.27998 13.1017C4.15169 16.3449 3.97597 20.408 3.71513 23.9052L3.71574 23.904Z" fill="white"/>
</g>
<g opacity="0.2">
<path opacity="0.2" d="M22.6283 2.79631C21.9023 3.04101 21.1654 3.14133 20.4041 3.1825C20.3252 3.18393 20.2465 3.18955 20.1682 3.19932C20.1203 3.20478 20.0735 3.2173 20.0296 3.23643C20.0064 3.24579 19.9875 3.26263 19.9761 3.28398C19.8453 3.54782 19.8849 3.92183 19.7329 4.20539C19.6972 4.28819 19.6534 4.36759 19.6021 4.44256C19.6003 4.44639 19.5979 4.44992 19.5948 4.45299C19.5559 4.46807 19.5596 4.43908 19.559 4.44488C19.559 4.43676 19.562 4.43038 19.5651 4.424L19.576 4.4066L19.5888 4.42226L19.5955 4.42922C19.5964 4.42958 19.5975 4.42958 19.5985 4.42922C19.5985 4.4356 19.6015 4.40776 19.5638 4.42226C19.5612 4.42464 19.5589 4.42738 19.5571 4.43038C19.4626 4.27662 19.3908 4.11114 19.3437 3.93865C19.2428 3.43358 19.2434 2.77138 19.891 2.5951C20.0567 2.55482 20.2281 2.54052 20.3986 2.55276C21.1435 2.5777 21.8913 2.61481 22.627 2.79573L22.6283 2.79631Z" fill="white"/>
</g>
<path d="M19.3752 5.32281L23.4399 8.74403C23.4277 8.73592 23.148 8.49237 23.1358 8.01224C23.148 7.54023 23.1425 7.10243 23.1425 7.10243L19.3728 3.86792L19.3752 5.32281Z" fill="url(#paint4_linear_1311_700)"/>
<path opacity="0.5" d="M14.9052 20.1094C17.5896 20.1094 19.7657 18.0341 19.7657 15.474C19.7657 12.9139 17.5896 10.8385 14.9052 10.8385C12.2208 10.8385 10.0447 12.9139 10.0447 15.474C10.0447 18.0341 12.2208 20.1094 14.9052 20.1094Z" fill="url(#paint5_radial_1311_700)"/>
<path d="M13.5961 13.9303C14.1757 13.9303 14.6455 13.4822 14.6455 12.9294C14.6455 12.3767 14.1757 11.9286 13.5961 11.9286C13.0165 11.9286 12.5466 12.3767 12.5466 12.9294C12.5466 13.4822 13.0165 13.9303 13.5961 13.9303Z" fill="white"/>
<path d="M12.0408 14.52C12.2789 14.52 12.4719 14.3359 12.4719 14.1089C12.4719 13.8818 12.2789 13.6978 12.0408 13.6978C11.8027 13.6978 11.6097 13.8818 11.6097 14.1089C11.6097 14.3359 11.8027 14.52 12.0408 14.52Z" fill="white"/>
<defs>
<linearGradient id="paint0_linear_1311_700" x1="103.566" y1="31.4951" x2="27.8101" y2="4.7545" gradientUnits="userSpaceOnUse">
<stop stop-color="#D9D9D9"/>
<stop offset="1" stop-color="white"/>
</linearGradient>
<linearGradient id="paint1_linear_1311_700" x1="23.7882" y1="26.0734" x2="9.34631" y2="7.81231" gradientUnits="userSpaceOnUse">
<stop stop-color="#D9D9D9"/>
<stop offset="1" stop-color="white"/>
</linearGradient>
<linearGradient id="paint2_linear_1311_700" x1="23.9482" y1="25.9469" x2="9.50638" y2="7.68587" gradientUnits="userSpaceOnUse">
<stop stop-color="#173D60"/>
<stop offset="1" stop-color="#1D5A8D"/>
</linearGradient>
<linearGradient id="paint3_linear_1311_700" x1="3.57535" y1="17.7656" x2="21.5193" y2="17.7656" gradientUnits="userSpaceOnUse">
<stop stop-color="#173D60"/>
<stop offset="1" stop-color="#1D5A8D"/>
</linearGradient>
<linearGradient id="paint4_linear_1311_700" x1="21.7714" y1="6.85018" x2="19.3106" y2="3.48039" gradientUnits="userSpaceOnUse">
<stop stop-color="#D9D9D9"/>
<stop offset="1" stop-color="#E8E8E8"/>
</linearGradient>
<radialGradient id="paint5_radial_1311_700" cx="0" cy="0" r="1" gradientUnits="userSpaceOnUse" gradientTransform="translate(14.9052 15.474) scale(4.86052 4.63547)">
<stop stop-opacity="0"/>
<stop offset="0.86" stop-opacity="0.14"/>
<stop offset="1" stop-opacity="0.3"/>
</radialGradient>
</defs>
</svg>
