<svg width="28" height="29" viewBox="0 0 28 29" fill="none" xmlns="http://www.w3.org/2000/svg">
<circle cx="14" cy="14.5" r="14" fill="#00A3CF"/>
<path fill-rule="evenodd" clip-rule="evenodd" d="M18.4122 10.367C18.4122 12.6496 16.5368 14.5 14.2234 14.5C11.91 14.5 10.0346 12.6496 10.0346 10.367C10.0346 8.08441 11.91 6.23401 14.2234 6.23401C16.5368 6.23401 18.4122 8.08441 18.4122 10.367ZM16.7367 10.367C16.7367 11.7365 15.6115 12.8468 14.2234 12.8468C12.8354 12.8468 11.7101 11.7365 11.7101 10.367C11.7101 8.99744 12.8354 7.8872 14.2234 7.8872C15.6115 7.8872 16.7367 8.99744 16.7367 10.367Z" fill="white"/>
<path d="M9.19682 20.2861C9.19682 18.9166 10.3221 17.8063 11.7101 17.8063H16.7367C18.1248 17.8063 19.25 18.9166 19.25 20.2861V21.9393C19.25 22.3958 19.6251 22.7659 20.0878 22.7659C20.5505 22.7659 20.9255 22.3958 20.9255 21.9393V20.2861C20.9255 18.0036 19.0501 16.1532 16.7367 16.1532H11.7101C9.39669 16.1532 7.52129 18.0036 7.52129 20.2861V21.9393C7.52129 22.3958 7.89637 22.7659 8.35905 22.7659C8.82174 22.7659 9.19682 22.3958 9.19682 21.9393V20.2861Z" fill="white"/>
</svg>
